<svg xmlns="http://www.w3.org/2000/svg" viewBox="0 0 165 86"><path transform="translate(5.00,72.00) scale(0.03711,-0.03711)" d="M1105 0 778 535H432V0H137V1409H841Q1093 1409 1230.0 1300.5Q1367 1192 1367 989Q1367 841 1283.0 733.5Q1199 626 1056 592L1437 0ZM1070 977Q1070 1180 810 1180H432V764H818Q942 764 1006.0 820.0Q1070 876 1070 977Z" fill="#1A2B4A" stroke="#1A2B4A" stroke-width="129.3" stroke-linejoin="round"/><path transform="translate(59.38,72.00) scale(0.03711,-0.03711)" d="M773 1181V0H478V1181H23V1409H1229V1181Z" fill="#1A2B4A" stroke="#1A2B4A" stroke-width="129.3" stroke-linejoin="round"/><path transform="translate(105.31,72.00) scale(0.03711,-0.03711)" d="M1112 0 606 647 432 514V0H137V1409H432V770L1067 1409H1411L809 813L1460 0Z" fill="#1A2B4A" stroke="#1A2B4A" stroke-width="129.3" stroke-linejoin="round"/><g stroke="#ffffff" stroke-width="4.6" stroke-linecap="round"><line x1="73.1" y1="52.5" x2="92.1" y2="42.5"/><line x1="73.1" y1="59.5" x2="92.1" y2="49.5"/><line x1="73.1" y1="66.5" x2="92.1" y2="56.5"/><line x1="73.1" y1="73.5" x2="92.1" y2="63.5"/></g></svg>