<svg xmlns="http://www.w3.org/2000/svg" viewBox="0 0 165 104"><path transform="translate(5.00,72.00) scale(0.03711,-0.03711)" d="M1105 0 778 535H432V0H137V1409H841Q1093 1409 1230.0 1300.5Q1367 1192 1367 989Q1367 841 1283.0 733.5Q1199 626 1056 592L1437 0ZM1070 977Q1070 1180 810 1180H432V764H818Q942 764 1006.0 820.0Q1070 876 1070 977Z" fill="#ffffff" stroke="#ffffff" stroke-width="129.3" stroke-linejoin="round"/><path transform="translate(59.38,72.00) scale(0.03711,-0.03711)" d="M773 1181V0H478V1181H23V1409H1229V1181Z" fill="#ffffff" stroke="#ffffff" stroke-width="129.3" stroke-linejoin="round"/><path transform="translate(105.31,72.00) scale(0.03711,-0.03711)" d="M1112 0 606 647 432 514V0H137V1409H432V770L1067 1409H1411L809 813L1460 0Z" fill="#ffffff" stroke="#ffffff" stroke-width="129.3" stroke-linejoin="round"/><g stroke="#1A2B4A" stroke-width="4.6" stroke-linecap="round"><line x1="73.1" y1="52.5" x2="92.1" y2="42.5"/><line x1="73.1" y1="59.5" x2="92.1" y2="49.5"/><line x1="73.1" y1="66.5" x2="92.1" y2="56.5"/><line x1="73.1" y1="73.5" x2="92.1" y2="63.5"/></g><path transform="translate(4.44,95.00) scale(0.00462,-0.00462)" d="M1105 0 778 535H432V0H137V1409H841Q1093 1409 1230.0 1300.5Q1367 1192 1367 989Q1367 841 1283.0 733.5Q1199 626 1056 592L1437 0ZM1070 977Q1070 1180 810 1180H432V764H818Q942 764 1006.0 820.0Q1070 876 1070 977Z" fill="#ffffff" stroke="#ffffff" stroke-width="195.0" stroke-linejoin="round"/><path transform="translate(11.67,95.00) scale(0.00462,-0.00462)" d="M723 -20Q432 -20 277.5 122.0Q123 264 123 528V1409H418V551Q418 384 497.5 297.5Q577 211 731 211Q889 211 974.0 301.5Q1059 392 1059 561V1409H1354V543Q1354 275 1188.5 127.5Q1023 -20 723 -20Z" fill="#ffffff" stroke="#ffffff" stroke-width="195.0" stroke-linejoin="round"/><path transform="translate(18.90,95.00) scale(0.00462,-0.00462)" d="M1286 406Q1286 199 1132.5 89.5Q979 -20 682 -20Q411 -20 257.0 76.0Q103 172 59 367L344 414Q373 302 457.0 251.5Q541 201 690 201Q999 201 999 389Q999 449 963.5 488.0Q928 527 863.5 553.0Q799 579 616 616Q458 653 396.0 675.5Q334 698 284.0 728.5Q234 759 199.0 802.0Q164 845 144.5 903.0Q125 961 125 1036Q125 1227 268.5 1328.5Q412 1430 686 1430Q948 1430 1079.5 1348.0Q1211 1266 1249 1077L963 1038Q941 1129 873.5 1175.0Q806 1221 680 1221Q412 1221 412 1053Q412 998 440.5 963.0Q469 928 525.0 903.5Q581 879 752 842Q955 799 1042.5 762.5Q1130 726 1181.0 677.5Q1232 629 1259.0 561.5Q1286 494 1286 406Z" fill="#ffffff" stroke="#ffffff" stroke-width="195.0" stroke-linejoin="round"/><path transform="translate(25.60,95.00) scale(0.00462,-0.00462)" d="M1286 406Q1286 199 1132.5 89.5Q979 -20 682 -20Q411 -20 257.0 76.0Q103 172 59 367L344 414Q373 302 457.0 251.5Q541 201 690 201Q999 201 999 389Q999 449 963.5 488.0Q928 527 863.5 553.0Q799 579 616 616Q458 653 396.0 675.5Q334 698 284.0 728.5Q234 759 199.0 802.0Q164 845 144.5 903.0Q125 961 125 1036Q125 1227 268.5 1328.5Q412 1430 686 1430Q948 1430 1079.5 1348.0Q1211 1266 1249 1077L963 1038Q941 1129 873.5 1175.0Q806 1221 680 1221Q412 1221 412 1053Q412 998 440.5 963.0Q469 928 525.0 903.5Q581 879 752 842Q955 799 1042.5 762.5Q1130 726 1181.0 677.5Q1232 629 1259.0 561.5Q1286 494 1286 406Z" fill="#ffffff" stroke="#ffffff" stroke-width="195.0" stroke-linejoin="round"/><path transform="translate(32.31,95.00) scale(0.00462,-0.00462)" d="M1133 0 1008 360H471L346 0H51L565 1409H913L1425 0ZM739 1192 733 1170Q723 1134 709.0 1088.0Q695 1042 537 582H942L803 987L760 1123Z" fill="#ffffff" stroke="#ffffff" stroke-width="195.0" stroke-linejoin="round"/><path transform="translate(39.54,95.00) scale(0.00462,-0.00462)" d="M1307 0V854Q1307 883 1307.5 912.0Q1308 941 1317 1161Q1246 892 1212 786L958 0H748L494 786L387 1161Q399 929 399 854V0H137V1409H532L784 621L806 545L854 356L917 582L1176 1409H1569V0Z" fill="#ffffff" stroke="#ffffff" stroke-width="195.0" stroke-linejoin="round"/><path transform="translate(47.81,95.00) scale(0.00462,-0.00462)" d="M137 0V1409H432V0Z" fill="#ffffff" stroke="#ffffff" stroke-width="195.0" stroke-linejoin="round"/><path transform="translate(50.84,95.00) scale(0.00462,-0.00462)" d="M773 1181V0H478V1181H23V1409H1229V1181Z" fill="#ffffff" stroke="#ffffff" stroke-width="195.0" stroke-linejoin="round"/><path transform="translate(57.01,95.00) scale(0.00462,-0.00462)" d="M1507 711Q1507 491 1420.0 324.0Q1333 157 1171.0 68.5Q1009 -20 793 -20Q461 -20 272.5 175.5Q84 371 84 711Q84 1050 272.0 1240.0Q460 1430 795 1430Q1130 1430 1318.5 1238.0Q1507 1046 1507 711ZM1206 711Q1206 939 1098.0 1068.5Q990 1198 795 1198Q597 1198 489.0 1069.5Q381 941 381 711Q381 479 491.5 345.5Q602 212 793 212Q991 212 1098.5 342.0Q1206 472 1206 711Z" fill="#ffffff" stroke="#ffffff" stroke-width="195.0" stroke-linejoin="round"/><path transform="translate(64.77,95.00) scale(0.00462,-0.00462)" d="M995 0 381 1085Q399 927 399 831V0H137V1409H474L1097 315Q1079 466 1079 590V1409H1341V0Z" fill="#ffffff" stroke="#ffffff" stroke-width="195.0" stroke-linejoin="round"/><path transform="translate(72.00,95.00) scale(0.00462,-0.00462)" d="M806 211Q921 211 1029.0 244.5Q1137 278 1196 330V525H852V743H1466V225Q1354 110 1174.5 45.0Q995 -20 798 -20Q454 -20 269.0 170.5Q84 361 84 711Q84 1059 270.0 1244.5Q456 1430 805 1430Q1301 1430 1436 1063L1164 981Q1120 1088 1026.0 1143.0Q932 1198 805 1198Q597 1198 489.0 1072.0Q381 946 381 711Q381 472 492.5 341.5Q604 211 806 211Z" fill="#ffffff" stroke="#ffffff" stroke-width="195.0" stroke-linejoin="round"/><path transform="translate(79.75,95.00) scale(0.00462,-0.00462)" d="M773 1181V0H478V1181H23V1409H1229V1181Z" fill="#ffffff" stroke="#ffffff" stroke-width="195.0" stroke-linejoin="round"/><path transform="translate(85.93,95.00) scale(0.00462,-0.00462)" d="M1105 0 778 535H432V0H137V1409H841Q1093 1409 1230.0 1300.5Q1367 1192 1367 989Q1367 841 1283.0 733.5Q1199 626 1056 592L1437 0ZM1070 977Q1070 1180 810 1180H432V764H818Q942 764 1006.0 820.0Q1070 876 1070 977Z" fill="#ffffff" stroke="#ffffff" stroke-width="195.0" stroke-linejoin="round"/><path transform="translate(93.15,95.00) scale(0.00462,-0.00462)" d="M1133 0 1008 360H471L346 0H51L565 1409H913L1425 0ZM739 1192 733 1170Q723 1134 709.0 1088.0Q695 1042 537 582H942L803 987L760 1123Z" fill="#ffffff" stroke="#ffffff" stroke-width="195.0" stroke-linejoin="round"/><path transform="translate(100.38,95.00) scale(0.00462,-0.00462)" d="M1112 0 606 647 432 514V0H137V1409H432V770L1067 1409H1411L809 813L1460 0Z" fill="#ffffff" stroke="#ffffff" stroke-width="195.0" stroke-linejoin="round"/><path transform="translate(107.61,95.00) scale(0.00462,-0.00462)" d="M723 -20Q432 -20 277.5 122.0Q123 264 123 528V1409H418V551Q418 384 497.5 297.5Q577 211 731 211Q889 211 974.0 301.5Q1059 392 1059 561V1409H1354V543Q1354 275 1188.5 127.5Q1023 -20 723 -20Z" fill="#ffffff" stroke="#ffffff" stroke-width="195.0" stroke-linejoin="round"/><path transform="translate(114.84,95.00) scale(0.00462,-0.00462)" d="M137 0V1409H432V228H1188V0Z" fill="#ffffff" stroke="#ffffff" stroke-width="195.0" stroke-linejoin="round"/><path transform="translate(124.04,95.00) scale(0.00462,-0.00462)" d="M795 212Q1062 212 1166 480L1423 383Q1340 179 1179.5 79.5Q1019 -20 795 -20Q455 -20 269.5 172.5Q84 365 84 711Q84 1058 263.0 1244.0Q442 1430 782 1430Q1030 1430 1186.0 1330.5Q1342 1231 1405 1038L1145 967Q1112 1073 1015.5 1135.5Q919 1198 788 1198Q588 1198 484.5 1074.0Q381 950 381 711Q381 468 487.5 340.0Q594 212 795 212Z" fill="#ffffff" stroke="#ffffff" stroke-width="195.0" stroke-linejoin="round"/><path transform="translate(131.27,95.00) scale(0.00462,-0.00462)" d="M1507 711Q1507 491 1420.0 324.0Q1333 157 1171.0 68.5Q1009 -20 793 -20Q461 -20 272.5 175.5Q84 371 84 711Q84 1050 272.0 1240.0Q460 1430 795 1430Q1130 1430 1318.5 1238.0Q1507 1046 1507 711ZM1206 711Q1206 939 1098.0 1068.5Q990 1198 795 1198Q597 1198 489.0 1069.5Q381 941 381 711Q381 479 491.5 345.5Q602 212 793 212Q991 212 1098.5 342.0Q1206 472 1206 711Z" fill="#ffffff" stroke="#ffffff" stroke-width="195.0" stroke-linejoin="round"/><path transform="translate(139.02,95.00) scale(0.00462,-0.00462)" d="M139 0V305H428V0Z" fill="#ffffff" stroke="#ffffff" stroke-width="195.0" stroke-linejoin="round"/><path transform="translate(142.05,95.00) scale(0.00462,-0.00462)" d="M432 66Q432 -54 406.5 -146.0Q381 -238 324 -317H139Q198 -246 235.0 -161.0Q272 -76 272 0H143V305H432Z" fill="#ffffff" stroke="#ffffff" stroke-width="195.0" stroke-linejoin="round"/><path transform="translate(145.07,95.00) scale(0.00462,-0.00462)" d="M137 0V1409H432V228H1188V0Z" fill="#ffffff" stroke="#ffffff" stroke-width="195.0" stroke-linejoin="round"/><path transform="translate(151.25,95.00) scale(0.00462,-0.00462)" d="M773 1181V0H478V1181H23V1409H1229V1181Z" fill="#ffffff" stroke="#ffffff" stroke-width="195.0" stroke-linejoin="round"/><path transform="translate(157.42,95.00) scale(0.00462,-0.00462)" d="M1393 715Q1393 497 1307.5 334.5Q1222 172 1065.5 86.0Q909 0 707 0H137V1409H647Q1003 1409 1198.0 1229.5Q1393 1050 1393 715ZM1096 715Q1096 942 978.0 1061.5Q860 1181 641 1181H432V228H682Q872 228 984.0 359.0Q1096 490 1096 715Z" fill="#ffffff" stroke="#ffffff" stroke-width="195.0" stroke-linejoin="round"/></svg>